<svg width="159" height="37" fill="none" xmlns="http://www.w3.org/2000/svg"><path d="M5.896 20.224v-1.032l6.144-3.156v1.608l-4.2 2.064 4.2 2.064v1.608l-6.144-3.156Z" fill="#fff"/><path transform="matrix(-.49096 .87118 -.86525 -.50134 16.5 13.084)" stroke="#fff" stroke-width="1.3" d="M0-.65h14.127"/><path d="m15.033 21.772 4.2-2.064-4.2-2.064v-1.608l6.144 3.156v1.032l-6.144 3.156v-1.608Z" fill="#fff"/><path fill-rule="evenodd" clip-rule="evenodd" d="M19.049 8.996A12.029 12.029 0 0 1 24 15.472l-2.93.881C19.914 12.674 16.412 10 12.271 10c-5.083 0-9.203 4.03-9.203 9s4.12 9 9.203 9c3.527 0 6.59-1.94 8.135-4.788l2.71 1.403a12.174 12.174 0 0 1-6.105 5.454 12.53 12.53 0 0 1-8.256.428 12.256 12.256 0 0 1-6.66-4.791 11.798 11.798 0 0 1-2.04-7.836 11.89 11.89 0 0 1 3.505-7.322c2-1.97 4.637-3.203 7.46-3.486a12.497 12.497 0 0 1 8.029 1.934Z" fill="#fff"/><path stroke="#fff" d="M27 25.5h130"/><path fill="#FFAE00" stroke="#fff" d="M95.5 25.5h10v10h-10z"/><path d="M32.024 24.192c-1.008 0-1.904-.2-2.688-.6a4.45 4.45 0 0 1-1.8-1.68c-.416-.72-.624-1.552-.624-2.496v-2.808c0-.944.208-1.776.624-2.496a4.45 4.45 0 0 1 1.8-1.68c.768-.4 1.656-.6 2.664-.6h1.896c.96 0 1.808.192 2.544.576a4.09 4.09 0 0 1 1.704 1.632c.4.688.6 1.488.6 2.4h-3.24c0-.544-.152-.976-.456-1.296-.288-.336-.672-.504-1.152-.504h-1.848c-.56 0-1.016.208-1.368.624-.336.4-.504.928-.504 1.584v2.328c0 .656.176 1.192.528 1.608.352.4.808.6 1.368.6h1.848c.512 0 .92-.184 1.224-.552.32-.368.48-.856.48-1.464h3.24c0 1.456-.456 2.624-1.368 3.504-.896.88-2.088 1.32-3.576 1.32h-1.896Zm13.43 0c-1.008 0-1.904-.192-2.688-.576a4.45 4.45 0 0 1-1.8-1.68c-.416-.72-.624-1.552-.624-2.496v-2.808c0-.944.216-1.776.648-2.496a4.4 4.4 0 0 1 1.8-1.704c.784-.4 1.68-.6 2.688-.6h2.16c1.008 0 1.896.2 2.664.6.784.4 1.392.968 1.824 1.704.432.72.648 1.552.648 2.496v2.808c0 .944-.216 1.776-.648 2.496a4.414 4.414 0 0 1-1.824 1.68c-.768.384-1.664.576-2.688.576h-2.16Zm2.112-2.808c.592 0 1.064-.2 1.416-.6.352-.416.528-.952.528-1.608v-2.328c0-.656-.176-1.184-.528-1.584-.352-.416-.816-.624-1.392-.624h-2.064c-.576 0-1.04.208-1.392.624-.352.4-.528.928-.528 1.584v2.328c0 .656.176 1.192.528 1.608.352.4.808.6 1.368.6h2.064Zm11.754 2.808c-1.456 0-2.624-.384-3.504-1.152-.88-.768-1.32-1.776-1.32-3.024h3.216c0 .432.144.784.432 1.056.304.256.696.384 1.176.384h2.16c.96 0 1.44-.264 1.44-.792v-.408c0-.16-.08-.304-.24-.432-.16-.144-.376-.24-.648-.288l-4.152-.72c-.976-.16-1.752-.504-2.328-1.032-.56-.544-.84-1.176-.84-1.896v-.792c0-1.024.416-1.824 1.248-2.4.848-.576 2.024-.864 3.528-.864h1.872c1.344 0 2.424.36 3.24 1.08.832.704 1.248 1.64 1.248 2.808h-3.216c0-.352-.12-.632-.36-.84-.224-.208-.528-.312-.912-.312h-1.824c-1.04 0-1.56.24-1.56.72v.384c0 .176.064.328.192.456.144.112.344.192.6.24l4.368.792c.912.16 1.648.504 2.208 1.032.56.512.84 1.096.84 1.752v.864c0 1.04-.432 1.864-1.296 2.472-.848.608-1.984.912-3.408.912h-2.16Zm10.988-13.296c-.624 0-1.128-.176-1.512-.528-.368-.368-.552-.848-.552-1.44s.184-1.064.552-1.416c.384-.368.888-.552 1.512-.552s1.12.184 1.488.552c.384.352.576.824.576 1.416s-.192 1.072-.576 1.44c-.368.352-.864.528-1.488.528Zm-1.632 1.128h3.264V24h-3.264V12.024Zm6.482 0h3.024v1.44a3.753 3.753 0 0 1 1.368-1.176c.56-.304 1.12-.456 1.68-.456h1.44c1.28 0 2.304.4 3.072 1.2.784.8 1.176 1.856 1.176 3.168V24h-3.264v-7.68c0-.496-.136-.896-.408-1.2-.256-.304-.592-.456-1.008-.456h-1.44c-.56 0-1.064.208-1.512.624-.432.4-.72.928-.864 1.584V24h-3.264V12.024Zm19.046 12.168c-1.008 0-1.904-.184-2.688-.552-.768-.384-1.368-.912-1.8-1.584-.432-.688-.648-1.472-.648-2.352v-3.096c0-.944.216-1.776.648-2.496a4.45 4.45 0 0 1 1.8-1.68c.784-.4 1.68-.6 2.688-.6h1.92c1.536 0 2.768.432 3.696 1.296.928.864 1.392 2.016 1.392 3.456v2.544h-8.88v.576c0 .528.168.952.504 1.272.336.32.792.48 1.368.48h1.872c.56 0 1.008-.12 1.344-.36.352-.256.528-.584.528-.984h3.216c0 .8-.216 1.512-.648 2.136-.432.624-1.04 1.104-1.824 1.44-.768.336-1.656.504-2.664.504h-1.824Zm3.792-7.416v-.192c0-.624-.168-1.12-.504-1.488-.336-.384-.784-.576-1.344-.576h-1.944c-.576 0-1.04.2-1.392.6-.352.4-.528.928-.528 1.584v.072h5.712Zm10.059 7.416c-1.008 0-1.904-.2-2.688-.6a4.45 4.45 0 0 1-1.8-1.68c-.416-.72-.624-1.552-.624-2.496v-2.808c0-.944.208-1.776.624-2.496a4.45 4.45 0 0 1 1.8-1.68c.768-.4 1.656-.6 2.664-.6h1.896c.96 0 1.808.192 2.544.576a4.09 4.09 0 0 1 1.704 1.632c.4.688.6 1.488.6 2.4h-3.24c0-.544-.152-.976-.456-1.296-.288-.336-.672-.504-1.152-.504h-1.848c-.56 0-1.016.208-1.368.624-.336.4-.504.928-.504 1.584v2.328c0 .656.176 1.192.528 1.608.352.4.808.6 1.368.6h1.848c.512 0 .92-.184 1.224-.552.32-.368.48-.856.48-1.464h3.24c0 1.456-.456 2.624-1.368 3.504-.896.88-2.088 1.32-3.576 1.32h-1.896Zm13.43 0c-1.008 0-1.904-.192-2.688-.576a4.45 4.45 0 0 1-1.8-1.68c-.416-.72-.624-1.552-.624-2.496v-2.808c0-.944.216-1.776.648-2.496a4.4 4.4 0 0 1 1.8-1.704c.784-.4 1.68-.6 2.688-.6h2.16c1.008 0 1.896.2 2.664.6.784.4 1.392.968 1.824 1.704.432.72.648 1.552.648 2.496v2.808c0 .944-.216 1.776-.648 2.496a4.414 4.414 0 0 1-1.824 1.68c-.768.384-1.664.576-2.688.576h-2.16Zm2.112-2.808c.592 0 1.064-.2 1.416-.6.352-.416.528-.952.528-1.608v-2.328c0-.656-.176-1.184-.528-1.584-.352-.416-.816-.624-1.392-.624h-2.064c-.576 0-1.04.208-1.392.624-.352.4-.528.928-.528 1.584v2.328c0 .656.176 1.192.528 1.608.352.4.808.6 1.368.6h2.064Zm11.778 2.808c-1.424 0-2.576-.432-3.456-1.296-.864-.864-1.296-2-1.296-3.408v-2.736c0-.976.208-1.832.624-2.568a4.24 4.24 0 0 1 1.752-1.728c.752-.416 1.624-.624 2.616-.624h1.32c.464 0 .936.104 1.416.312.48.192.88.456 1.2.792V7.2h3.264V24h-3.024v-1.584c-.32.528-.752.96-1.296 1.296-.544.32-1.112.48-1.704.48h-1.416Zm1.776-2.808c.656 0 1.2-.232 1.632-.696.448-.48.704-1.112.768-1.896v-2.088c-.112-.624-.36-1.12-.744-1.488a1.765 1.765 0 0 0-1.32-.576h-1.464c-.64 0-1.16.216-1.56.648-.384.432-.576 1-.576 1.704v2.256c0 .64.176 1.16.528 1.56.352.384.808.576 1.368.576h1.368Zm13.092 2.808c-1.008 0-1.904-.184-2.688-.552-.768-.384-1.368-.912-1.8-1.584-.432-.688-.648-1.472-.648-2.352v-3.096c0-.944.216-1.776.648-2.496a4.45 4.45 0 0 1 1.8-1.68c.784-.4 1.68-.6 2.688-.6h1.92c1.536 0 2.768.432 3.696 1.296.928.864 1.392 2.016 1.392 3.456v2.544h-8.88v.576c0 .528.168.952.504 1.272.336.32.792.48 1.368.48h1.872c.56 0 1.008-.12 1.344-.36.352-.256.528-.584.528-.984h3.216c0 .8-.216 1.512-.648 2.136-.432.624-1.04 1.104-1.824 1.44-.768.336-1.656.504-2.664.504h-1.824Zm3.792-7.416v-.192c0-.624-.168-1.12-.504-1.488-.336-.384-.784-.576-1.344-.576h-1.944c-.576 0-1.04.2-1.392.6-.352.4-.528.928-.528 1.584v.072h5.712ZM29.211 34c-.491 0-.807-.286-.946-.858l-1.111-4.631h1.551l.671 3.487h.022l1.199-3.355h.583c.169 0 .304.037.407.11a.718.718 0 0 1 .242.341l1.023 2.904h.022l.66-3.487h1.551l-1.089 4.631c-.132.572-.447.858-.946.858h-.682l-1.221-3.476L29.882 34h-.671Zm8.671.088c-.462 0-.872-.084-1.232-.253a2.041 2.041 0 0 1-.825-.726 1.984 1.984 0 0 1-.297-1.078v-1.419c0-.433.1-.814.297-1.144.198-.33.473-.587.825-.77a2.68 2.68 0 0 1 1.232-.275h.88c.704 0 1.269.198 1.694.594.426.396.638.924.638 1.584v1.166h-4.07v.264c0 .242.077.436.231.583.154.147.363.22.627.22h.858c.257 0 .462-.055.616-.165a.536.536 0 0 0 .242-.451h1.474c0 .367-.099.693-.297.979a1.894 1.894 0 0 1-.836.66 3.022 3.022 0 0 1-1.22.231h-.837Zm1.738-3.399v-.088c0-.286-.077-.513-.23-.682a.778.778 0 0 0-.617-.264h-.89a.809.809 0 0 0-.639.275c-.161.183-.242.425-.242.726v.033h2.618ZM46.85 34c-.492 0-.807-.286-.946-.858l-1.111-4.631h1.55l.672 3.487h.022l1.199-3.355h.583a.69.69 0 0 1 .407.11.718.718 0 0 1 .242.341l1.023 2.904h.022l.66-3.487h1.55l-1.088 4.631c-.132.572-.448.858-.946.858h-.682l-1.221-3.476L47.52 34h-.671Zm7.612-6.006c-.286 0-.517-.08-.693-.242-.169-.169-.253-.389-.253-.66s.084-.488.253-.649c.176-.169.407-.253.693-.253s.513.084.682.253c.176.161.264.378.264.649a.873.873 0 0 1-.264.66c-.169.161-.396.242-.682.242Zm-.748.517h1.496V34h-1.496v-5.489ZM58.577 34c-.653 0-1.133-.136-1.441-.407-.3-.279-.451-.708-.451-1.287V26.3h1.496v5.918c0 .176.04.304.12.385.081.08.21.121.386.121h.594V34h-.704Zm3.19 0c-.652 0-1.133-.136-1.44-.407-.301-.279-.452-.708-.452-1.287V26.3h1.496v5.918c0 .176.04.304.121.385.081.08.21.121.385.121h.594V34h-.704Zm10.802-5.577c.557 0 1.005.183 1.342.55.338.36.506.832.506 1.419V34h-1.496v-3.608c0-.205-.047-.367-.143-.484a.449.449 0 0 0-.374-.187h-.473a.739.739 0 0 0-.539.231.99.99 0 0 0-.286.594V34H69.61v-3.597c0-.205-.047-.37-.143-.495a.449.449 0 0 0-.374-.187h-.429c-.213 0-.4.095-.56.286-.162.19-.265.44-.309.748V34H66.3v-5.489h1.386v.638c.132-.22.3-.396.506-.528.213-.132.425-.198.638-.198h.616c.264 0 .503.07.715.209.22.14.392.334.517.583a1.89 1.89 0 0 1 .572-.583c.228-.14.466-.209.715-.209h.605Zm4.792 5.665c-.572 0-1.034-.143-1.386-.429-.352-.286-.528-.664-.528-1.133v-.407c0-.462.184-.832.55-1.111.367-.286.851-.429 1.452-.429h.671c.191 0 .396.026.616.077.22.051.422.121.605.209v-.572a.558.558 0 0 0-.187-.44.64.64 0 0 0-.473-.176h-.946c-.205 0-.37.048-.495.143a.46.46 0 0 0-.187.385h-1.452c0-.535.195-.964.583-1.287.396-.33.913-.495 1.551-.495h.946c.646 0 1.166.172 1.562.517.396.337.594.788.594 1.353V34h-1.386v-.66c-.176.227-.392.41-.649.55a1.65 1.65 0 0 1-.759.198h-.682Zm.792-1.144c.272 0 .514-.07.726-.209a1.19 1.19 0 0 0 .462-.561v-.187a1.358 1.358 0 0 0-.495-.209 2.717 2.717 0 0 0-.66-.077h-.693a.666.666 0 0 0-.429.132.428.428 0 0 0-.165.352v.286c0 .14.059.253.176.341a.82.82 0 0 0 .484.132h.594ZM85.843 34l-1.717-2.2-.583.583V34h-1.496v-7.7h1.496v4.4l2.167-2.189h1.738l-2.354 2.332L87.536 34h-1.694Zm4.15.088c-.462 0-.873-.084-1.232-.253a2.041 2.041 0 0 1-.825-.726 1.984 1.984 0 0 1-.297-1.078v-1.419c0-.433.099-.814.297-1.144.198-.33.473-.587.825-.77.359-.183.77-.275 1.232-.275h.88c.704 0 1.268.198 1.694.594.425.396.638.924.638 1.584v1.166h-4.07v.264c0 .242.077.436.23.583.155.147.364.22.628.22h.858c.256 0 .462-.055.616-.165a.536.536 0 0 0 .242-.451h1.474c0 .367-.1.693-.297.979a1.894 1.894 0 0 1-.836.66 3.022 3.022 0 0 1-1.221.231h-.836Zm1.738-3.399v-.088c0-.286-.077-.513-.231-.682a.778.778 0 0 0-.616-.264h-.891a.809.809 0 0 0-.638.275c-.162.183-.242.425-.242.726v.033h2.618Zm18.752 3.399c-.653 0-1.181-.198-1.584-.594-.396-.396-.594-.917-.594-1.562v-1.254c0-.447.095-.84.286-1.177.19-.345.458-.609.803-.792.344-.19.744-.286 1.199-.286h.605c.212 0 .429.048.649.143.22.088.403.209.55.363V26.3h1.496V34h-1.386v-.726c-.147.242-.345.44-.594.594-.25.147-.51.22-.781.22h-.649Zm.814-1.287c.3 0 .55-.106.748-.319.205-.22.322-.51.352-.869v-.957c-.052-.286-.165-.513-.341-.682a.81.81 0 0 0-.605-.264h-.671a.928.928 0 0 0-.715.297c-.176.198-.264.458-.264.781v1.034c0 .293.08.532.242.715a.81.81 0 0 0 .627.264h.627Zm4.812-4.807c-.286 0-.517-.08-.693-.242a.895.895 0 0 1-.253-.66c0-.271.085-.488.253-.649.176-.169.407-.253.693-.253s.514.084.682.253c.176.161.264.378.264.649a.873.873 0 0 1-.264.66c-.168.161-.396.242-.682.242Zm-.748.517h1.496V34h-1.496v-5.489Zm3.477 1.276h-.946v-1.276h.946v-.363c0-.594.187-1.056.561-1.386.382-.337.91-.506 1.584-.506h.792v1.276h-.77c-.234 0-.407.051-.517.154-.102.103-.154.264-.154.484v.341h1.32v1.276h-1.32V34h-1.496v-4.213Zm4.168 0h-.946v-1.276h.946v-.363c0-.594.187-1.056.561-1.386.382-.337.91-.506 1.584-.506h.792v1.276h-.77c-.234 0-.407.051-.517.154-.102.103-.154.264-.154.484v.341h1.32v1.276h-1.32V34h-1.496v-4.213Zm5.506 4.301c-.462 0-.872-.084-1.232-.253a2.041 2.041 0 0 1-.825-.726 1.984 1.984 0 0 1-.297-1.078v-1.419c0-.433.099-.814.297-1.144.198-.33.473-.587.825-.77a2.68 2.68 0 0 1 1.232-.275h.88c.704 0 1.269.198 1.694.594.426.396.638.924.638 1.584v1.166h-4.07v.264c0 .242.077.436.231.583.154.147.363.22.627.22h.858c.257 0 .462-.055.616-.165a.534.534 0 0 0 .242-.451h1.474c0 .367-.099.693-.297.979a1.89 1.89 0 0 1-.836.66 3.022 3.022 0 0 1-1.221.231h-.836Zm1.738-3.399v-.088c0-.286-.077-.513-.231-.682a.777.777 0 0 0-.616-.264h-.891a.81.81 0 0 0-.638.275c-.161.183-.242.425-.242.726v.033h2.618Zm2.488-2.178h1.386v.704c.139-.213.337-.385.594-.517.264-.14.539-.209.825-.209h.748v1.298h-.748c-.389 0-.704.117-.946.352s-.363.535-.363.902V34h-1.496v-5.489Zm6.173 5.577c-.462 0-.873-.084-1.232-.253a2.041 2.041 0 0 1-.825-.726 1.984 1.984 0 0 1-.297-1.078v-1.419c0-.433.099-.814.297-1.144.198-.33.473-.587.825-.77.359-.183.77-.275 1.232-.275h.88c.704 0 1.268.198 1.694.594.425.396.638.924.638 1.584v1.166h-4.07v.264c0 .242.077.436.231.583.154.147.363.22.627.22h.858c.256 0 .462-.055.616-.165a.537.537 0 0 0 .242-.451h1.474c0 .367-.099.693-.297.979a1.896 1.896 0 0 1-.836.66 3.022 3.022 0 0 1-1.221.231h-.836Zm1.738-3.399v-.088c0-.286-.077-.513-.231-.682a.779.779 0 0 0-.616-.264h-.891a.808.808 0 0 0-.638.275c-.162.183-.242.425-.242.726v.033h2.618Zm2.487-2.178h1.386v.66c.161-.227.37-.407.627-.539.257-.14.513-.209.77-.209h.66c.587 0 1.056.183 1.408.55.359.367.539.85.539 1.452V34h-1.496v-3.52c0-.227-.062-.41-.187-.55a.574.574 0 0 0-.462-.209h-.66a.992.992 0 0 0-.693.286c-.198.183-.33.425-.396.726V34h-1.496v-5.489ZM152.13 34c-.646 0-1.119-.147-1.419-.44-.301-.293-.451-.748-.451-1.364v-2.409h-.968v-1.276h1.012V26.85h1.452v1.661h1.43v1.276h-1.43v2.343c0 .205.036.356.11.451.08.095.205.143.374.143h.946V34h-1.056Z" fill="#fff"/><path d="M98.621 27.994c-.286 0-.517-.08-.693-.242-.169-.169-.253-.389-.253-.66s.084-.488.253-.649c.176-.169.407-.253.693-.253s.513.084.682.253c.176.161.264.378.264.649a.873.873 0 0 1-.264.66c-.169.161-.396.242-.682.242Zm-.748.517h1.496V34h-1.496v-5.489ZM103.242 34c-.645 0-1.118-.147-1.419-.44-.301-.293-.451-.748-.451-1.364v-2.409h-.968v-1.276h1.012V26.85h1.452v1.661h1.43v1.276h-1.43v2.343c0 .205.037.356.11.451.081.095.205.143.374.143h.946V34h-1.056Z" fill="#F8F6F6"/></svg>