<svg width="1200" height="350" viewBox="0 0 1200 350" fill="none" xmlns="http://www.w3.org/2000/svg">
<path fill-rule="evenodd" clip-rule="evenodd" d="M40 343.699C0.500072 311.875 0 296.759 0 296.759L1.62125e-05 0H40H240H480H720H960H1160H1200V179.01L1160 169.065C1145.43 165.443 1118.86 167.685 1087.34 170.345C1032.3 174.989 962.185 180.905 914.5 159.12C878.562 142.701 858.812 162.701 835.334 186.475C809.816 212.315 779.895 242.614 720 235.45C605 221.694 480 234.654 428.5 316.601C398.238 364.754 352.266 335.982 304.379 306.013C270.772 284.98 236.223 263.358 205.5 267.322C170.386 271.852 140.382 296.148 114.335 317.24C85.1193 340.898 60.8827 360.524 40 343.699Z" fill="#0099FF"/>
<mask id="path-2-inside-1_31_23" fill="white">
<path fill-rule="evenodd" clip-rule="evenodd" d="M826 270C834.284 270 841 263.284 841 255C841 246.716 834.284 240 826 240C817.716 240 811 246.716 811 255C811 263.284 817.716 270 826 270Z"/>
</mask>
<path fill-rule="evenodd" clip-rule="evenodd" d="M826 270C834.284 270 841 263.284 841 255C841 246.716 834.284 240 826 240C817.716 240 811 246.716 811 255C811 263.284 817.716 270 826 270Z" fill="#0099FF"/>
<path d="M840 255C840 262.732 833.732 269 826 269V271C834.837 271 842 263.837 842 255H840ZM826 241C833.732 241 840 247.268 840 255H842C842 246.163 834.837 239 826 239V241ZM812 255C812 247.268 818.268 241 826 241V239C817.163 239 810 246.163 810 255H812ZM826 269C818.268 269 812 262.732 812 255H810C810 263.837 817.163 271 826 271V269Z" fill="#F5F5F5" mask="url(#path-2-inside-1_31_23)"/>
</svg>
