<svg width="1200" height="350" fill="none" xmlns="http://www.w3.org/2000/svg"><path fill-rule="evenodd" clip-rule="evenodd" d="M40 343.699c-39.5-31.824-40-46.94-40-46.94V0h1200v179.01l-40-9.945c-14.57-3.622-41.14-1.38-72.66 1.28-55.04 4.644-125.155 10.56-172.84-11.225-35.938-16.419-55.688 3.581-79.166 27.355-25.518 25.84-55.439 56.139-115.334 48.975-115-13.756-240-.796-291.5 81.151-30.262 48.153-76.234 19.381-124.121-10.588-33.607-21.033-68.156-42.655-98.879-38.691-35.114 4.53-65.118 28.826-91.165 49.918C85.119 340.898 60.883 360.524 40 343.699Z" fill="#09F"/><mask id="a" fill="#fff"><path fill-rule="evenodd" clip-rule="evenodd" d="M826 270c8.284 0 15-6.716 15-15 0-8.284-6.716-15-15-15-8.284 0-15 6.716-15 15 0 8.284 6.716 15 15 15Z"/></mask><path fill-rule="evenodd" clip-rule="evenodd" d="M826 270c8.284 0 15-6.716 15-15 0-8.284-6.716-15-15-15-8.284 0-15 6.716-15 15 0 8.284 6.716 15 15 15Z" fill="#09F"/><path d="M840 255c0 7.732-6.268 14-14 14v2c8.837 0 16-7.163 16-16h-2Zm-14-14c7.732 0 14 6.268 14 14h2c0-8.837-7.163-16-16-16v2Zm-14 14c0-7.732 6.268-14 14-14v-2c-8.837 0-16 7.163-16 16h2Zm14 14c-7.732 0-14-6.268-14-14h-2c0 8.837 7.163 16 16 16v-2Z" fill="#F5F5F5" mask="url(#a)"/></svg>