<svg width="1200" height="210" viewBox="0 0 1200 210" fill="none" xmlns="http://www.w3.org/2000/svg">
<path fill-rule="evenodd" clip-rule="evenodd" d="M270 150.948C277.767 150.948 284.062 144.779 284.062 137.17C284.062 129.56 277.767 123.392 270 123.392C262.233 123.392 255.938 129.56 255.938 137.17C255.938 144.779 262.233 150.948 270 150.948ZM1200 62.7899L1160 38.2549C1120 13.7199 1118 193.344 996 5.22496C844 -26.1282 800 92.2319 720 131.488C640 170.744 553.5 120.008 480 131.488C400 126.581 418 186.493 338 181.586C258 176.679 202 157.1 162 152.193L0 121.674V210H40C80 210 160 210 240 210C320 210 400 210 480 210C560 210 640 210 720 210C800 210 880 210 960 210C1040 210 1120 210 1160 210H1200V62.7899Z" fill="#0099FF"/>
</svg>
