<svg width="159" height="37" viewBox="0 0 159 37" fill="none" xmlns="http://www.w3.org/2000/svg">
<path d="M4.8955 19.1349V18.1029L11.0395 14.9469V16.5549L6.8395 18.6189L11.0395 20.6829V22.2909L4.8955 19.1349Z" fill="white"/>
<line y1="-1" x2="14" y2="-1" transform="matrix(-0.495415 0.868656 -0.867829 -0.496863 16.5 12.0115)" stroke="white" stroke-width="2"/>
<path d="M15.0327 20.6829L19.2327 18.6189L15.0327 16.5549V14.9469L21.1767 18.1029V19.1349L15.0327 22.2909V20.6829Z" fill="white"/>
<path fill-rule="evenodd" clip-rule="evenodd" d="M19.0489 7.97275C21.4155 9.48793 23.1653 11.7492 24 14.3712L21.0702 15.2421C19.9144 11.6069 16.4122 8.96431 12.2713 8.96431C7.18838 8.96431 3.06789 12.9459 3.06789 17.8574C3.06789 22.7689 7.18838 26.7505 12.2713 26.7505C15.7978 26.7505 18.8611 24.8339 20.4064 22.0199L23.1159 23.4062C21.7874 25.8306 19.63 27.7349 17.0113 28.7946C14.3927 29.8543 11.4748 30.0038 8.75488 29.2177C6.03493 28.4316 3.68121 26.7585 2.09475 24.4835C0.50829 22.2085 -0.212741 19.4724 0.05451 16.7413C0.321761 14.0102 1.56076 11.4531 3.56039 9.50575C5.56002 7.55841 8.19657 6.34127 11.0208 6.06174C13.845 5.7822 16.6822 6.45757 19.0489 7.97275Z" fill="white"/>
<line x1="27" y1="25.5" x2="157" y2="25.5" stroke="white"/>
<rect x="96" y="25" width="11" height="11" fill="#FFAE00"/>
<path d="M32.024 24.192C31.016 24.192 30.12 23.992 29.336 23.592C28.568 23.192 27.968 22.632 27.536 21.912C27.12 21.192 26.912 20.36 26.912 19.416V16.608C26.912 15.664 27.12 14.832 27.536 14.112C27.968 13.392 28.568 12.832 29.336 12.432C30.104 12.032 30.992 11.832 32 11.832H33.896C34.856 11.832 35.704 12.024 36.44 12.408C37.176 12.792 37.744 13.336 38.144 14.04C38.544 14.728 38.744 15.528 38.744 16.44H35.504C35.504 15.896 35.352 15.464 35.048 15.144C34.76 14.808 34.376 14.64 33.896 14.64H32.048C31.488 14.64 31.032 14.848 30.68 15.264C30.344 15.664 30.176 16.192 30.176 16.848V19.176C30.176 19.832 30.352 20.368 30.704 20.784C31.056 21.184 31.512 21.384 32.072 21.384H33.92C34.432 21.384 34.84 21.2 35.144 20.832C35.464 20.464 35.624 19.976 35.624 19.368H38.864C38.864 20.824 38.408 21.992 37.496 22.872C36.6 23.752 35.408 24.192 33.92 24.192H32.024ZM45.4537 24.192C44.4457 24.192 43.5497 24 42.7657 23.616C41.9977 23.216 41.3977 22.656 40.9657 21.936C40.5497 21.216 40.3417 20.384 40.3417 19.44V16.632C40.3417 15.688 40.5577 14.856 40.9897 14.136C41.4217 13.4 42.0217 12.832 42.7897 12.432C43.5737 12.032 44.4697 11.832 45.4777 11.832H47.6377C48.6457 11.832 49.5337 12.032 50.3017 12.432C51.0857 12.832 51.6937 13.4 52.1257 14.136C52.5577 14.856 52.7737 15.688 52.7737 16.632V19.44C52.7737 20.384 52.5577 21.216 52.1257 21.936C51.6937 22.656 51.0857 23.216 50.3017 23.616C49.5337 24 48.6377 24.192 47.6137 24.192H45.4537ZM47.5657 21.384C48.1577 21.384 48.6297 21.184 48.9817 20.784C49.3337 20.368 49.5097 19.832 49.5097 19.176V16.848C49.5097 16.192 49.3337 15.664 48.9817 15.264C48.6297 14.848 48.1657 14.64 47.5897 14.64H45.5257C44.9497 14.64 44.4857 14.848 44.1337 15.264C43.7817 15.664 43.6057 16.192 43.6057 16.848V19.176C43.6057 19.832 43.7817 20.368 44.1337 20.784C44.4857 21.184 44.9417 21.384 45.5017 21.384H47.5657ZM59.3197 24.192C57.8637 24.192 56.6957 23.808 55.8157 23.04C54.9357 22.272 54.4957 21.264 54.4957 20.016H57.7117C57.7117 20.448 57.8557 20.8 58.1437 21.072C58.4477 21.328 58.8397 21.456 59.3197 21.456H61.4797C62.4397 21.456 62.9197 21.192 62.9197 20.664V20.256C62.9197 20.096 62.8397 19.952 62.6797 19.824C62.5197 19.68 62.3037 19.584 62.0317 19.536L57.8797 18.816C56.9037 18.656 56.1277 18.312 55.5517 17.784C54.9917 17.24 54.7117 16.608 54.7117 15.888V15.096C54.7117 14.072 55.1277 13.272 55.9597 12.696C56.8077 12.12 57.9837 11.832 59.4877 11.832H61.3597C62.7037 11.832 63.7837 12.192 64.5997 12.912C65.4317 13.616 65.8477 14.552 65.8477 15.72H62.6317C62.6317 15.368 62.5117 15.088 62.2717 14.88C62.0477 14.672 61.7437 14.568 61.3597 14.568H59.5357C58.4957 14.568 57.9757 14.808 57.9757 15.288V15.672C57.9757 15.848 58.0397 16 58.1677 16.128C58.3117 16.24 58.5117 16.32 58.7677 16.368L63.1357 17.16C64.0477 17.32 64.7837 17.664 65.3437 18.192C65.9037 18.704 66.1837 19.288 66.1837 19.944V20.808C66.1837 21.848 65.7517 22.672 64.8877 23.28C64.0397 23.888 62.9037 24.192 61.4797 24.192H59.3197ZM70.3076 10.896C69.6836 10.896 69.1796 10.72 68.7956 10.368C68.4276 10 68.2436 9.52 68.2436 8.928C68.2436 8.336 68.4276 7.864 68.7956 7.512C69.1796 7.144 69.6836 6.96 70.3076 6.96C70.9316 6.96 71.4276 7.144 71.7956 7.512C72.1796 7.864 72.3716 8.336 72.3716 8.928C72.3716 9.52 72.1796 10 71.7956 10.368C71.4276 10.72 70.9316 10.896 70.3076 10.896ZM68.6756 12.024H71.9396V24H68.6756V12.024ZM75.1576 12.024H78.1816V13.464C78.5336 12.968 78.9896 12.576 79.5496 12.288C80.1096 11.984 80.6696 11.832 81.2296 11.832H82.6696C83.9496 11.832 84.9736 12.232 85.7416 13.032C86.5256 13.832 86.9176 14.888 86.9176 16.2V24H83.6536V16.32C83.6536 15.824 83.5176 15.424 83.2456 15.12C82.9896 14.816 82.6536 14.664 82.2376 14.664H80.7976C80.2376 14.664 79.7336 14.872 79.2856 15.288C78.8536 15.688 78.5656 16.216 78.4216 16.872V24H75.1576V12.024ZM94.2043 24.192C93.1963 24.192 92.3003 24.008 91.5163 23.64C90.7483 23.256 90.1483 22.728 89.7163 22.056C89.2843 21.368 89.0683 20.584 89.0683 19.704V16.608C89.0683 15.664 89.2843 14.832 89.7163 14.112C90.1483 13.392 90.7483 12.832 91.5163 12.432C92.3003 12.032 93.1963 11.832 94.2043 11.832H96.1243C97.6603 11.832 98.8923 12.264 99.8203 13.128C100.748 13.992 101.212 15.144 101.212 16.584V19.128H92.3323V19.704C92.3323 20.232 92.5003 20.656 92.8363 20.976C93.1723 21.296 93.6283 21.456 94.2043 21.456H96.0763C96.6363 21.456 97.0843 21.336 97.4203 21.096C97.7723 20.84 97.9483 20.512 97.9483 20.112H101.164C101.164 20.912 100.948 21.624 100.516 22.248C100.084 22.872 99.4763 23.352 98.6923 23.688C97.9243 24.024 97.0363 24.192 96.0283 24.192H94.2043ZM97.9963 16.776V16.584C97.9963 15.96 97.8283 15.464 97.4923 15.096C97.1563 14.712 96.7083 14.52 96.1483 14.52H94.2043C93.6283 14.52 93.1643 14.72 92.8123 15.12C92.4603 15.52 92.2843 16.048 92.2843 16.704V16.776H97.9963ZM108.055 24.192C107.047 24.192 106.151 23.992 105.367 23.592C104.599 23.192 103.999 22.632 103.567 21.912C103.151 21.192 102.943 20.36 102.943 19.416V16.608C102.943 15.664 103.151 14.832 103.567 14.112C103.999 13.392 104.599 12.832 105.367 12.432C106.135 12.032 107.023 11.832 108.031 11.832H109.927C110.887 11.832 111.735 12.024 112.471 12.408C113.207 12.792 113.775 13.336 114.175 14.04C114.575 14.728 114.775 15.528 114.775 16.44H111.535C111.535 15.896 111.383 15.464 111.079 15.144C110.791 14.808 110.407 14.64 109.927 14.64H108.079C107.519 14.64 107.063 14.848 106.711 15.264C106.375 15.664 106.207 16.192 106.207 16.848V19.176C106.207 19.832 106.383 20.368 106.735 20.784C107.087 21.184 107.543 21.384 108.103 21.384H109.951C110.463 21.384 110.871 21.2 111.175 20.832C111.495 20.464 111.655 19.976 111.655 19.368H114.895C114.895 20.824 114.439 21.992 113.527 22.872C112.631 23.752 111.439 24.192 109.951 24.192H108.055ZM121.485 24.192C120.477 24.192 119.581 24 118.797 23.616C118.029 23.216 117.429 22.656 116.997 21.936C116.581 21.216 116.373 20.384 116.373 19.44V16.632C116.373 15.688 116.589 14.856 117.021 14.136C117.453 13.4 118.053 12.832 118.821 12.432C119.605 12.032 120.501 11.832 121.509 11.832H123.669C124.677 11.832 125.565 12.032 126.333 12.432C127.117 12.832 127.725 13.4 128.157 14.136C128.589 14.856 128.805 15.688 128.805 16.632V19.44C128.805 20.384 128.589 21.216 128.157 21.936C127.725 22.656 127.117 23.216 126.333 23.616C125.565 24 124.669 24.192 123.645 24.192H121.485ZM123.597 21.384C124.189 21.384 124.661 21.184 125.013 20.784C125.365 20.368 125.541 19.832 125.541 19.176V16.848C125.541 16.192 125.365 15.664 125.013 15.264C124.661 14.848 124.197 14.64 123.621 14.64H121.557C120.981 14.64 120.517 14.848 120.165 15.264C119.813 15.664 119.637 16.192 119.637 16.848V19.176C119.637 19.832 119.813 20.368 120.165 20.784C120.517 21.184 120.973 21.384 121.533 21.384H123.597ZM135.375 24.192C133.951 24.192 132.799 23.76 131.919 22.896C131.055 22.032 130.623 20.896 130.623 19.488V16.752C130.623 15.776 130.831 14.92 131.247 14.184C131.663 13.432 132.247 12.856 132.999 12.456C133.751 12.04 134.623 11.832 135.615 11.832H136.935C137.399 11.832 137.871 11.936 138.351 12.144C138.831 12.336 139.231 12.6 139.551 12.936V7.2H142.815V24H139.791V22.416C139.471 22.944 139.039 23.376 138.495 23.712C137.951 24.032 137.383 24.192 136.791 24.192H135.375ZM137.151 21.384C137.807 21.384 138.351 21.152 138.783 20.688C139.231 20.208 139.487 19.576 139.551 18.792V16.704C139.439 16.08 139.191 15.584 138.807 15.216C138.439 14.832 137.999 14.64 137.487 14.64H136.023C135.383 14.64 134.863 14.856 134.463 15.288C134.079 15.72 133.887 16.288 133.887 16.992V19.248C133.887 19.888 134.063 20.408 134.415 20.808C134.767 21.192 135.223 21.384 135.783 21.384H137.151ZM150.243 24.192C149.235 24.192 148.339 24.008 147.555 23.64C146.787 23.256 146.187 22.728 145.755 22.056C145.323 21.368 145.107 20.584 145.107 19.704V16.608C145.107 15.664 145.323 14.832 145.755 14.112C146.187 13.392 146.787 12.832 147.555 12.432C148.339 12.032 149.235 11.832 150.243 11.832H152.163C153.699 11.832 154.931 12.264 155.859 13.128C156.787 13.992 157.251 15.144 157.251 16.584V19.128H148.371V19.704C148.371 20.232 148.539 20.656 148.875 20.976C149.211 21.296 149.667 21.456 150.243 21.456H152.115C152.675 21.456 153.123 21.336 153.459 21.096C153.811 20.84 153.987 20.512 153.987 20.112H157.203C157.203 20.912 156.987 21.624 156.555 22.248C156.123 22.872 155.515 23.352 154.731 23.688C153.963 24.024 153.075 24.192 152.067 24.192H150.243ZM154.035 16.776V16.584C154.035 15.96 153.867 15.464 153.531 15.096C153.195 14.712 152.747 14.52 152.187 14.52H150.243C149.667 14.52 149.203 14.72 148.851 15.12C148.499 15.52 148.323 16.048 148.323 16.704V16.776H154.035Z" fill="white"/>
<path d="M35.01 34C34.5633 34 34.2767 33.74 34.15 33.22L33.14 29.01H34.55L35.16 32.18H35.18L36.27 29.13H36.8C36.9533 29.13 37.0767 29.1633 37.17 29.23C37.2633 29.2967 37.3367 29.4 37.39 29.54L38.32 32.18H38.34L38.94 29.01H40.35L39.36 33.22C39.24 33.74 38.9533 34 38.5 34H37.88L36.77 30.84L35.62 34H35.01ZM42.893 34.08C42.473 34.08 42.0997 34.0033 41.773 33.85C41.453 33.69 41.203 33.47 41.023 33.19C40.843 32.9033 40.753 32.5767 40.753 32.21V30.92C40.753 30.5267 40.843 30.18 41.023 29.88C41.203 29.58 41.453 29.3467 41.773 29.18C42.0997 29.0133 42.473 28.93 42.893 28.93H43.693C44.333 28.93 44.8464 29.11 45.233 29.47C45.6197 29.83 45.813 30.31 45.813 30.91V31.97H42.113V32.21C42.113 32.43 42.183 32.6067 42.323 32.74C42.463 32.8733 42.653 32.94 42.893 32.94H43.673C43.9064 32.94 44.093 32.89 44.233 32.79C44.3797 32.6833 44.453 32.5467 44.453 32.38H45.793C45.793 32.7133 45.703 33.01 45.523 33.27C45.343 33.53 45.0897 33.73 44.763 33.87C44.443 34.01 44.073 34.08 43.653 34.08H42.893ZM44.473 30.99V30.91C44.473 30.65 44.403 30.4433 44.263 30.29C44.123 30.13 43.9364 30.05 43.703 30.05H42.893C42.653 30.05 42.4597 30.1333 42.313 30.3C42.1664 30.4667 42.093 30.6867 42.093 30.96V30.99H44.473ZM51.0452 34C50.5985 34 50.3118 33.74 50.1852 33.22L49.1752 29.01H50.5852L51.1952 32.18H51.2152L52.3052 29.13H52.8352C52.9885 29.13 53.1118 29.1633 53.2052 29.23C53.2985 29.2967 53.3718 29.4 53.4252 29.54L54.3552 32.18H54.3752L54.9752 29.01H56.3852L55.3952 33.22C55.2752 33.74 54.9885 34 54.5352 34H53.9152L52.8052 30.84L51.6552 34H51.0452ZM57.9654 28.54C57.7054 28.54 57.4954 28.4667 57.3354 28.32C57.1821 28.1667 57.1054 27.9667 57.1054 27.72C57.1054 27.4733 57.1821 27.2767 57.3354 27.13C57.4954 26.9767 57.7054 26.9 57.9654 26.9C58.2254 26.9 58.4321 26.9767 58.5854 27.13C58.7454 27.2767 58.8254 27.4733 58.8254 27.72C58.8254 27.9667 58.7454 28.1667 58.5854 28.32C58.4321 28.4667 58.2254 28.54 57.9654 28.54ZM57.2854 29.01H58.6454V34H57.2854V29.01ZM61.7063 34C61.1129 34 60.6763 33.8767 60.3963 33.63C60.1229 33.3767 59.9863 32.9867 59.9863 32.46V27H61.3463V32.38C61.3463 32.54 61.3829 32.6567 61.4563 32.73C61.5296 32.8033 61.6463 32.84 61.8063 32.84H62.3462V34H61.7063ZM64.6066 34C64.0133 34 63.5766 33.8767 63.2966 33.63C63.0233 33.3767 62.8866 32.9867 62.8866 32.46V27H64.2466V32.38C64.2466 32.54 64.2833 32.6567 64.3566 32.73C64.43 32.8033 64.5466 32.84 64.7066 32.84H65.2466V34H64.6066ZM74.4265 28.93C74.9332 28.93 75.3398 29.0967 75.6465 29.43C75.9532 29.7567 76.1065 30.1867 76.1065 30.72V34H74.7465V30.72C74.7465 30.5333 74.7032 30.3867 74.6165 30.28C74.5298 30.1667 74.4165 30.11 74.2765 30.11H73.8465C73.6598 30.11 73.4965 30.18 73.3565 30.32C73.2165 30.4533 73.1298 30.6333 73.0965 30.86V34H71.7365V30.73C71.7365 30.5433 71.6932 30.3933 71.6065 30.28C71.5198 30.1667 71.4065 30.11 71.2665 30.11H70.8765C70.6832 30.11 70.5132 30.1967 70.3665 30.37C70.2198 30.5433 70.1265 30.77 70.0865 31.05V34H68.7265V29.01H69.9865V29.59C70.1065 29.39 70.2598 29.23 70.4465 29.11C70.6398 28.99 70.8332 28.93 71.0265 28.93H71.5865C71.8265 28.93 72.0432 28.9933 72.2365 29.12C72.4365 29.2467 72.5932 29.4233 72.7065 29.65C72.8532 29.4233 73.0265 29.2467 73.2265 29.12C73.4332 28.9933 73.6498 28.93 73.8765 28.93H74.4265ZM78.783 34.08C78.263 34.08 77.843 33.95 77.523 33.69C77.203 33.43 77.043 33.0867 77.043 32.66V32.29C77.043 31.87 77.2097 31.5333 77.543 31.28C77.8764 31.02 78.3164 30.89 78.863 30.89H79.473C79.6464 30.89 79.833 30.9133 80.033 30.96C80.233 31.0067 80.4164 31.07 80.583 31.15V30.63C80.583 30.4633 80.5264 30.33 80.413 30.23C80.3064 30.1233 80.163 30.07 79.983 30.07H79.123C78.9364 30.07 78.7864 30.1133 78.673 30.2C78.5597 30.2867 78.503 30.4033 78.503 30.55H77.183C77.183 30.0633 77.3597 29.6733 77.713 29.38C78.073 29.08 78.543 28.93 79.123 28.93H79.983C80.5697 28.93 81.043 29.0867 81.403 29.4C81.763 29.7067 81.943 30.1167 81.943 30.63V34H80.683V33.4C80.523 33.6067 80.3264 33.7733 80.093 33.9C79.8597 34.02 79.6297 34.08 79.403 34.08H78.783ZM79.503 33.04C79.7497 33.04 79.9697 32.9767 80.163 32.85C80.3564 32.7233 80.4964 32.5533 80.583 32.34V32.17C80.4764 32.09 80.3264 32.0267 80.133 31.98C79.9464 31.9333 79.7464 31.91 79.533 31.91H78.903C78.743 31.91 78.613 31.95 78.513 32.03C78.413 32.11 78.363 32.2167 78.363 32.35V32.61C78.363 32.7367 78.4164 32.84 78.523 32.92C78.6364 33 78.783 33.04 78.963 33.04H79.503ZM86.4929 34L84.9329 32L84.4029 32.53V34H83.0429V27H84.4029V31L86.3729 29.01H87.9529L85.8129 31.13L88.0329 34H86.4929ZM90.2661 34.08C89.8461 34.08 89.4728 34.0033 89.1461 33.85C88.8261 33.69 88.5761 33.47 88.3961 33.19C88.2161 32.9033 88.1261 32.5767 88.1261 32.21V30.92C88.1261 30.5267 88.2161 30.18 88.3961 29.88C88.5761 29.58 88.8261 29.3467 89.1461 29.18C89.4728 29.0133 89.8461 28.93 90.2661 28.93H91.0661C91.7061 28.93 92.2194 29.11 92.6061 29.47C92.9928 29.83 93.1861 30.31 93.1861 30.91V31.97H89.4861V32.21C89.4861 32.43 89.5561 32.6067 89.6961 32.74C89.8361 32.8733 90.0261 32.94 90.2661 32.94H91.0461C91.2794 32.94 91.4661 32.89 91.6061 32.79C91.7528 32.6833 91.8261 32.5467 91.8261 32.38H93.1661C93.1661 32.7133 93.0761 33.01 92.8961 33.27C92.7161 33.53 92.4628 33.73 92.1361 33.87C91.8161 34.01 91.4461 34.08 91.0261 34.08H90.2661ZM91.8461 30.99V30.91C91.8461 30.65 91.7761 30.4433 91.6361 30.29C91.4961 30.13 91.3094 30.05 91.0761 30.05H90.2661C90.0261 30.05 89.8328 30.1333 89.6861 30.3C89.5394 30.4667 89.4661 30.6867 89.4661 30.96V30.99H91.8461ZM111.18 34.08C110.587 34.08 110.107 33.9 109.74 33.54C109.38 33.18 109.2 32.7067 109.2 32.12V30.98C109.2 30.5733 109.287 30.2167 109.46 29.91C109.634 29.5967 109.877 29.3567 110.19 29.19C110.504 29.0167 110.867 28.93 111.28 28.93H111.83C112.024 28.93 112.22 28.9733 112.42 29.06C112.62 29.14 112.787 29.25 112.92 29.39V27H114.28V34H113.02V33.34C112.887 33.56 112.707 33.74 112.48 33.88C112.254 34.0133 112.017 34.08 111.77 34.08H111.18ZM111.92 32.91C112.194 32.91 112.42 32.8133 112.6 32.62C112.787 32.42 112.894 32.1567 112.92 31.83V30.96C112.874 30.7 112.77 30.4933 112.61 30.34C112.457 30.18 112.274 30.1 112.06 30.1H111.45C111.184 30.1 110.967 30.19 110.8 30.37C110.64 30.55 110.56 30.7867 110.56 31.08V32.02C110.56 32.2867 110.634 32.5033 110.78 32.67C110.927 32.83 111.117 32.91 111.35 32.91H111.92ZM116.295 28.54C116.035 28.54 115.825 28.4667 115.665 28.32C115.512 28.1667 115.435 27.9667 115.435 27.72C115.435 27.4733 115.512 27.2767 115.665 27.13C115.825 26.9767 116.035 26.9 116.295 26.9C116.555 26.9 116.762 26.9767 116.915 27.13C117.075 27.2767 117.155 27.4733 117.155 27.72C117.155 27.9667 117.075 28.1667 116.915 28.32C116.762 28.4667 116.555 28.54 116.295 28.54ZM115.615 29.01H116.975V34H115.615V29.01ZM118.776 30.17H117.916V29.01H118.776V28.68C118.776 28.14 118.946 27.72 119.286 27.42C119.633 27.1133 120.113 26.96 120.726 26.96H121.446V28.12H120.746C120.533 28.12 120.376 28.1667 120.276 28.26C120.183 28.3533 120.136 28.5 120.136 28.7V29.01H121.336V30.17H120.136V34H118.776V30.17ZM122.565 30.17H121.705V29.01H122.565V28.68C122.565 28.14 122.735 27.72 123.075 27.42C123.422 27.1133 123.902 26.96 124.515 26.96H125.235V28.12H124.535C124.322 28.12 124.165 28.1667 124.065 28.26C123.972 28.3533 123.925 28.5 123.925 28.7V29.01H125.125V30.17H123.925V34H122.565V30.17ZM127.571 34.08C127.151 34.08 126.777 34.0033 126.451 33.85C126.131 33.69 125.881 33.47 125.701 33.19C125.521 32.9033 125.431 32.5767 125.431 32.21V30.92C125.431 30.5267 125.521 30.18 125.701 29.88C125.881 29.58 126.131 29.3467 126.451 29.18C126.777 29.0133 127.151 28.93 127.571 28.93H128.371C129.011 28.93 129.524 29.11 129.911 29.47C130.297 29.83 130.491 30.31 130.491 30.91V31.97H126.791V32.21C126.791 32.43 126.861 32.6067 127.001 32.74C127.141 32.8733 127.331 32.94 127.571 32.94H128.351C128.584 32.94 128.771 32.89 128.911 32.79C129.057 32.6833 129.131 32.5467 129.131 32.38H130.471C130.471 32.7133 130.381 33.01 130.201 33.27C130.021 33.53 129.767 33.73 129.441 33.87C129.121 34.01 128.751 34.08 128.331 34.08H127.571ZM129.151 30.99V30.91C129.151 30.65 129.081 30.4433 128.941 30.29C128.801 30.13 128.614 30.05 128.381 30.05H127.571C127.331 30.05 127.137 30.1333 126.991 30.3C126.844 30.4667 126.771 30.6867 126.771 30.96V30.99H129.151ZM131.412 29.01H132.672V29.65C132.799 29.4567 132.979 29.3 133.212 29.18C133.452 29.0533 133.702 28.99 133.962 28.99H134.642V30.17H133.962C133.609 30.17 133.322 30.2767 133.102 30.49C132.882 30.7033 132.772 30.9767 132.772 31.31V34H131.412V29.01ZM137.024 34.08C136.604 34.08 136.231 34.0033 135.904 33.85C135.584 33.69 135.334 33.47 135.154 33.19C134.974 32.9033 134.884 32.5767 134.884 32.21V30.92C134.884 30.5267 134.974 30.18 135.154 29.88C135.334 29.58 135.584 29.3467 135.904 29.18C136.231 29.0133 136.604 28.93 137.024 28.93H137.824C138.464 28.93 138.977 29.11 139.364 29.47C139.751 29.83 139.944 30.31 139.944 30.91V31.97H136.244V32.21C136.244 32.43 136.314 32.6067 136.454 32.74C136.594 32.8733 136.784 32.94 137.024 32.94H137.804C138.037 32.94 138.224 32.89 138.364 32.79C138.511 32.6833 138.584 32.5467 138.584 32.38H139.924C139.924 32.7133 139.834 33.01 139.654 33.27C139.474 33.53 139.221 33.73 138.894 33.87C138.574 34.01 138.204 34.08 137.784 34.08H137.024ZM138.604 30.99V30.91C138.604 30.65 138.534 30.4433 138.394 30.29C138.254 30.13 138.067 30.05 137.834 30.05H137.024C136.784 30.05 136.591 30.1333 136.444 30.3C136.297 30.4667 136.224 30.6867 136.224 30.96V30.99H138.604ZM140.865 29.01H142.125V29.61C142.272 29.4033 142.462 29.24 142.695 29.12C142.928 28.9933 143.162 28.93 143.395 28.93H143.995C144.528 28.93 144.955 29.0967 145.275 29.43C145.602 29.7633 145.765 30.2033 145.765 30.75V34H144.405V30.8C144.405 30.5933 144.348 30.4267 144.235 30.3C144.128 30.1733 143.988 30.11 143.815 30.11H143.215C142.982 30.11 142.772 30.1967 142.585 30.37C142.405 30.5367 142.285 30.7567 142.225 31.03V34H140.865V29.01ZM149.041 34C148.455 34 148.025 33.8667 147.751 33.6C147.478 33.3333 147.341 32.92 147.341 32.36V30.17H146.461V29.01H147.381V27.5H148.701V29.01H150.001V30.17H148.701V32.3C148.701 32.4867 148.735 32.6233 148.801 32.71C148.875 32.7967 148.988 32.84 149.141 32.84H150.001V34H149.041Z" fill="white"/>
<path d="M98.7124 27.448C98.4004 27.448 98.1484 27.36 97.9564 27.184C97.7724 27 97.6804 26.76 97.6804 26.464C97.6804 26.168 97.7724 25.932 97.9564 25.756C98.1484 25.572 98.4004 25.48 98.7124 25.48C99.0244 25.48 99.2724 25.572 99.4564 25.756C99.6484 25.932 99.7444 26.168 99.7444 26.464C99.7444 26.76 99.6484 27 99.4564 27.184C99.2724 27.36 99.0244 27.448 98.7124 27.448ZM97.8964 28.012H99.5284V34H97.8964V28.012ZM103.753 34C103.049 34 102.533 33.84 102.205 33.52C101.877 33.2 101.713 32.704 101.713 32.032V29.404H100.657V28.012H101.761V26.2H103.345V28.012H104.905V29.404H103.345V31.96C103.345 32.184 103.385 32.348 103.465 32.452C103.553 32.556 103.689 32.608 103.873 32.608H104.905V34H103.753Z" fill="#F8F6F6"/>
</svg>
